# xmcd
#
# Track frame offsets: 
#        150
#        9980
#        19468
#        32809
#        46318
#        58518
#        71200
#        85621
#        99093
#        112789
#        124953
#        139735
#        152990
#        166411
#        178218
#        190075
#        203531
#        215940
#        231602
#        244366
#
# Disc length: 3417 seconds
#
# Revision: 2
# Processed by: cddbd v1.5.2PL0 Copyright (c) Steve Scherf et al.
# Submitted via: ExactAudioCopyFreeDBPlugin 1.0
#
DISCID=1e0d5714
DTITLE=Howlin' Wolf - ABC Of The Blues - Vol. 16 Howlin' Wolf
DYEAR=2010
DGENRE=Blues
TTITLE0=Look-A-Here Baby
TTITLE1=Smile At Me
TTITLE2=California Boogie
TTITLE3=My Baby Walked Off
TTITLE4=Chocolate Drop
TTITLE5=Mr. Highway Man
TTITLE6=Color And Kind
TTITLE7=Everybody's In The Mood
TTITLE8=(Well) That's Alright
TTITLE9=Baby Ride With Me
TTITLE10=Decoration Day Blues
TTITLE11=Moanin' At Midnight
TTITLE12=The Wolf Is At Your Door
TTITLE13=Getting Old And Grey
TTITLE14=Oh, Red!
TTITLE15=My Last Affair
TTITLE16=Dorothy Mae
TTITLE17=I Got A Woman - Sweet Woman
TTITLE18=Bluebird Blues
TTITLE19=Howlin' Wolf Boogie
EXTD=
EXTT0=
EXTT1=
EXTT2=
EXTT3=
EXTT4=
EXTT5=
EXTT6=
EXTT7=
EXTT8=
EXTT9=
EXTT10=
EXTT11=
EXTT12=
EXTT13=
EXTT14=
EXTT15=
EXTT16=
EXTT17=
EXTT18=
EXTT19=
PLAYORDER=
